<svg xmlns="http://www.w3.org/2000/svg" viewBox="0 0 103.18 83.14"><defs><style>.cls-1{fill:#fdf0f0;}.cls-2,.cls-3{isolation:isolate;font-family:ShowcardGothic-Reg, Showcard Gothic;}.cls-2{font-size:12px;}.cls-3{font-size:11.97px;}</style></defs><g id="Calque_2" data-name="Calque 2"><g id="Calque_1-2" data-name="Calque 1"><g id="texte_et_fond" data-name="texte et fond"><ellipse class="cls-1" cx="51.59" cy="41.57" rx="51.59" ry="41.57"/><text class="cls-2" transform="translate(30.33 16.58) rotate(-9.41)">L</text><text class="cls-2" transform="matrix(0.99, -0.1, 0.1, 0.99, 36.47, 15.56)">e</text><text class="cls-2" transform="matrix(1, -0.02, 0.02, 1, 45.33, 14.71)">C</text><text class="cls-2" transform="translate(52.31 14.5) rotate(2.68)">h</text><text class="cls-3" transform="matrix(0.99, 0.12, -0.12, 0.99, 61.48, 14.96)">a</text><text class="cls-2" transform="matrix(0.98, 0.19, -0.19, 0.98, 68.66, 15.82)">t</text><text class="cls-2" transform="matrix(0.99, 0.13, -0.13, 0.99, 33.78, 76.99)">F</text><text class="cls-2" transform="translate(40.66 77.91) rotate(3.4)">O</text><text class="cls-2" transform="translate(49.35 78.4) rotate(-0.79)">N</text><text class="cls-2" transform="translate(57.41 78.27) rotate(-4.72)">C</text><text class="cls-2" transform="translate(64.9 77.63) rotate(-8.57)">é</text></g><g id="chat"><ellipse cx="51.59" cy="44" rx="34.58" ry="17.86"/><path d="M42.15,30.48c0-3.68-3.54-5.1-7.19-6.66-8.41-3.59-7.18,3-7.18,6.66A6.94,6.94,0,0,0,35,37.15,7,7,0,0,0,42.15,30.48Z"/><path d="M60.77,30.48c0-3.68,3.54-5.1,7.18-6.66,8.41-3.59,7.18,3,7.18,6.66a7.2,7.2,0,0,1-14.36,0Z"/><path class="cls-1" d="M28.16,39.55C34.3,46.87,38.48,45.63,50.27,44"/><path class="cls-1" d="M28.12,39.57C36,34.7,39.57,37.66,50.27,44.08"/><path class="cls-1" d="M77,39.84C70.77,47.07,66.64,45.76,54.85,44"/><path class="cls-1" d="M77.07,39.86c-7.77-5-11.43-2.08-22.21,4.14"/><ellipse cx="37.46" cy="41.36" rx="1.74" ry="4.72"/><ellipse cx="67.23" cy="41.64" rx="1.66" ry="5"/></g></g></g></svg>